<svg width="608" height="578" viewBox="0 0 608 578" fill="none" xmlns="http://www.w3.org/2000/svg">
<g filter="url(#filter0_d_3_207)">
<path d="M207.284 43.2302C209.072 42.1588 210.996 41.3314 213.004 40.7702L214.173 35.1245L223.72 34.9523L225.098 40.5611C227.122 41.06 229.07 41.8252 230.893 42.8366L235.716 39.6755L242.593 46.3175L239.603 51.2375C240.675 53.0211 241.503 54.9407 242.064 56.9447L247.711 58.1132L247.883 67.658L242.273 69.0233C241.776 71.0472 241.011 72.9956 239.997 74.8166L243.159 79.6505L236.515 86.5139L231.594 83.525C229.81 84.597 227.89 85.4244 225.886 85.985L224.655 91.6307L215.108 91.8029L213.73 86.1941C211.711 85.6951 209.766 84.9299 207.948 83.9186L203.113 87.0797L196.211 80.45L199.201 75.53C198.129 73.7417 197.301 71.8182 196.74 69.8105L191.093 68.5805L190.921 59.0357L196.531 57.6581C197.03 55.6348 197.795 53.6867 198.807 51.8648L195.645 47.0309L202.362 40.2413L207.284 43.2302ZM212.377 55.9484C210.969 57.4055 210.024 59.2474 209.662 61.2413C209.301 63.2352 209.539 65.2914 210.346 67.1501C211.154 69.0087 212.494 70.5862 214.198 71.6832C215.903 72.7802 217.894 73.3473 219.92 73.3129C221.947 73.2785 223.918 72.6441 225.584 71.4899C227.25 70.3358 228.536 68.7137 229.28 66.8287C230.023 64.9437 230.191 62.8806 229.763 60.9001C229.334 58.9197 228.327 57.1109 226.87 55.7024C225.9 54.7611 224.754 54.0205 223.498 53.5232C222.241 53.0259 220.899 52.7817 219.548 52.8045C218.196 52.8274 216.863 53.1169 215.624 53.6564C214.385 54.1959 213.265 54.9748 212.328 55.9484H212.377Z" fill="#E0E0E0"/>
<path d="M209.498 360.004C210.528 359.383 211.637 358.904 212.795 358.578L213.472 355.318L218.984 355.22L219.771 358.455C220.94 358.737 222.065 359.176 223.117 359.758L225.898 357.938L229.859 361.763L228.198 364.58C228.82 365.61 229.299 366.719 229.626 367.876L232.886 368.553L232.984 374.063L229.749 374.85C229.466 376.019 229.027 377.144 228.445 378.196L230.265 380.976L226.439 384.936L223.597 383.214C222.565 383.834 221.457 384.318 220.3 384.654L219.586 387.95L214.075 388.048L213.287 384.813C212.118 384.531 210.993 384.092 209.941 383.51L207.161 385.33L203.199 381.505L204.921 378.663C204.302 377.631 203.818 376.523 203.482 375.367L200.234 374.691L200.136 369.18L203.371 368.393C203.654 367.224 204.092 366.099 204.675 365.047L202.855 362.268L206.681 358.307L209.523 360.029L209.498 360.004ZM212.439 367.384C211.624 368.226 211.077 369.29 210.867 370.442C210.658 371.594 210.795 372.782 211.261 373.856C211.727 374.93 212.502 375.842 213.487 376.476C214.472 377.109 215.623 377.436 216.794 377.416C217.965 377.395 219.104 377.027 220.066 376.359C221.027 375.691 221.769 374.753 222.198 373.663C222.626 372.573 222.721 371.38 222.47 370.237C222.22 369.093 221.636 368.049 220.792 367.237C220.237 366.695 219.581 366.267 218.861 365.979C218.141 365.69 217.371 365.546 216.595 365.555C215.819 365.565 215.053 365.726 214.34 366.032C213.626 366.337 212.98 366.78 212.439 367.335V367.384Z" fill="#E0E0E0"/>
<path d="M89.5207 73.5989C90.2246 73.1733 90.9816 72.8425 91.7721 72.6149L92.2397 70.3886H95.992L96.558 72.5288C97.3553 72.7313 98.124 73.033 98.8463 73.4267L100.741 72.1967L103.448 74.8043L102.217 76.7477C102.643 77.4514 102.974 78.2083 103.201 78.9986L105.428 79.466V83.156L103.214 83.6972C103.021 84.4956 102.723 85.265 102.328 85.985L103.558 87.8792L100.95 90.5852L99.0062 89.3552C98.3023 89.7808 97.5453 90.1116 96.7548 90.3392L96.2873 92.5655H92.5964L92.0551 90.3515C91.2565 90.1589 90.487 89.8611 89.7668 89.4659L87.8721 90.6959L85.1655 88.076L86.3958 86.1449C85.9701 85.4411 85.6392 84.6843 85.4116 83.894L83.1848 83.4266L83.1232 79.7366L85.3255 79.1954C85.528 78.3983 85.8297 77.6297 86.2236 76.9076L84.9933 75.0134L87.6015 72.3074L89.5453 73.5374L89.5207 73.5989ZM91.5261 78.605C90.9719 79.179 90.6004 79.9044 90.4585 80.6894C90.3166 81.4745 90.4107 82.284 90.7289 83.0156C91.0471 83.7472 91.5751 84.3681 92.2462 84.7997C92.9172 85.2314 93.7012 85.4544 94.4991 85.4406C95.2969 85.4269 96.0728 85.177 96.7286 84.7225C97.3844 84.2679 97.8906 83.6292 98.1834 82.8871C98.4762 82.145 98.5423 81.3327 98.3734 80.553C98.2046 79.7733 97.8083 79.0612 97.2346 78.5066C96.8534 78.1381 96.4034 77.8483 95.9101 77.6538C95.4169 77.4593 94.8901 77.3639 94.36 77.373C93.8298 77.3822 93.3066 77.4957 92.8204 77.7071C92.3341 77.9185 91.8943 78.2236 91.5261 78.605Z" fill="#E0E0E0"/>
<path d="M273.178 65.69C274.566 64.8514 276.059 64.202 277.619 63.7589L278.529 59.3678L285.911 59.2325L286.981 63.599C288.559 63.9846 290.078 64.5803 291.497 65.3702L295.187 62.9102L300.638 68.15L298.325 71.9384C299.166 73.3288 299.816 74.8266 300.256 76.391L304.661 77.3012L304.784 84.6812L300.429 85.7513C300.032 87.3366 299.428 88.8627 298.632 90.29L301.093 94.0538L295.938 99.392L292.099 97.0673C290.71 97.9033 289.217 98.5526 287.658 98.9984L286.735 103.39L279.354 103.525L278.283 99.1583C276.689 98.7818 275.154 98.1901 273.719 97.3994L270.028 99.8594L264.676 94.7057L267.002 90.8681C266.165 89.4754 265.515 87.9783 265.07 86.4155L260.678 85.5053L260.543 78.1253L264.91 77.0552C265.296 75.4819 265.892 73.9677 266.682 72.5534L264.221 68.7896L269.376 63.4514L273.178 65.69ZM277.139 75.53C276.045 76.665 275.311 78.099 275.032 79.6507C274.753 81.2024 274.94 82.802 275.571 84.2472C276.201 85.6924 277.246 86.9183 278.573 87.7698C279.9 88.6213 281.45 89.0602 283.026 89.031C284.603 89.0017 286.136 88.5056 287.43 87.6055C288.725 86.7053 289.724 85.4415 290.3 83.9739C290.876 82.5063 291.004 80.9009 290.667 79.3606C290.33 77.8204 289.545 76.4145 288.409 75.3209C287.649 74.5999 286.755 74.0358 285.777 73.6609C284.799 73.2861 283.757 73.1078 282.71 73.1364C281.663 73.1649 280.632 73.3998 279.676 73.8274C278.72 74.255 277.858 74.867 277.139 75.6284V75.53Z" fill="#EBEBEB"/>
<path d="M469.593 249.083C471.372 248.011 473.288 247.184 475.289 246.623L476.519 240.977L486.054 240.805L487.432 246.414C489.457 246.907 491.407 247.673 493.226 248.689L498.037 245.528L504.902 252.158L501.925 257.078C502.99 258.865 503.817 260.784 504.385 262.785L510.032 264.015L510.204 273.548L504.594 274.925C504.101 276.946 503.335 278.891 502.318 280.706L505.48 285.528L498.861 292.317L493.94 289.329C492.155 290.399 490.235 291.226 488.231 291.789L487.001 297.434L477.466 297.594L476.089 292.01C474.069 291.511 472.124 290.746 470.306 289.734L465.483 292.896L458.619 286.266L461.608 281.346C460.536 279.567 459.708 277.651 459.148 275.651L453.501 274.421L453.341 264.95L458.938 263.572C459.437 261.549 460.203 259.601 461.214 257.779L458.053 252.97L464.684 246.106L469.605 249.095L469.593 249.083ZM474.674 261.789C473.269 263.246 472.328 265.086 471.969 267.078C471.61 269.069 471.85 271.123 472.659 272.978C473.467 274.833 474.807 276.407 476.51 277.501C478.213 278.595 480.202 279.159 482.226 279.123C484.249 279.087 486.217 278.452 487.88 277.298C489.542 276.144 490.826 274.524 491.567 272.641C492.309 270.758 492.475 268.697 492.046 266.72C491.616 264.742 490.61 262.936 489.154 261.531C488.188 260.595 487.046 259.859 485.794 259.366C484.542 258.872 483.206 258.63 481.86 258.654C480.515 258.678 479.188 258.968 477.954 259.505C476.721 260.043 475.606 260.819 474.674 261.789Z" fill="#E0E0E0"/>
<path d="M537 63.5006C537.007 59.5277 536.098 55.6066 534.342 52.0424C532.587 48.4782 530.033 45.3669 526.878 42.9504C523.724 40.534 520.055 38.8776 516.156 38.11C512.257 37.3424 508.233 37.4844 504.398 38.5248C500.563 39.5653 497.019 41.4762 494.043 44.1089C491.067 46.7416 488.739 50.0252 487.239 53.7043C485.739 57.3833 485.108 61.3587 485.396 65.3213C485.683 69.2838 486.881 73.1266 488.896 76.5509L488.97 76.6493C489.954 78.3221 491.197 79.5152 492.451 81.2618L507.473 101.139C507.909 101.703 508.468 102.16 509.108 102.474C509.748 102.788 510.451 102.952 511.164 102.952C511.877 102.952 512.58 102.788 513.22 102.474C513.86 102.16 514.419 101.703 514.855 101.139L529.618 81.5939C530.96 80.0249 532.212 78.3824 533.371 76.6739L533.432 76.6001C535.775 72.6326 537.008 68.108 537 63.5006ZM511.164 74.7428C508.916 74.7404 506.72 74.0717 504.852 72.8214C502.984 71.5711 501.529 69.7953 500.67 67.7183C499.812 65.6414 499.588 63.3566 500.028 61.1528C500.468 58.949 501.552 56.9251 503.142 55.3368C504.733 53.7486 506.758 52.6674 508.963 52.2299C511.168 51.7923 513.453 52.0181 515.529 52.8787C517.606 53.7393 519.381 55.196 520.629 57.0647C521.878 58.9334 522.544 61.1303 522.544 63.3776C522.544 64.8711 522.25 66.35 521.678 67.7297C521.106 69.1094 520.267 70.3628 519.21 71.4183C518.153 72.4739 516.899 73.3108 515.518 73.8812C514.137 74.4516 512.658 74.7444 511.164 74.7428Z" fill="#E0E0E0"/>
<path d="M82.1267 435.243C84.7449 433.424 86.7712 430.875 87.9543 427.915C89.1375 424.954 89.4255 421.712 88.7826 418.589C87.0971 409.746 78.9403 403.829 70.7097 405.416C62.4791 407.003 57.0535 415.44 58.739 424.296C59.2894 427.464 60.7674 430.397 62.9859 432.725C65.2044 435.052 68.0636 436.669 71.2018 437.371C48.786 445.342 54.7283 470.237 54.7283 470.237L109.39 459.856C109.39 459.856 105.699 434.247 82.1267 435.243Z" fill="#EBEBEB"/>
<path d="M148.353 541.368L137.157 538.588C137.157 538.588 134.832 548.034 124.965 545.784C123.058 545.385 121.321 544.402 119.998 542.972C118.675 541.541 117.831 539.733 117.584 537.801C117.351 536.182 117.505 534.531 118.033 532.983C118.561 531.435 119.449 530.035 120.622 528.896C123.304 526.214 128.201 524.382 135.386 527.592L141.648 502.217L130.514 499.474L126.823 514.345C126.823 514.345 110.226 514.529 105.994 531.725C101.934 548.182 115.75 555.636 122.074 557.186C126.921 558.379 143.666 561.269 148.353 541.368Z" fill="#EBEBEB"/>
<path d="M131.66 494.22L142.949 497.001L145.548 486.455L134.259 483.674L131.66 494.22Z" fill="#EBEBEB"/>
<path d="M70.528 270.116H95.9302L93.6928 281.641H47.9347L49.7466 272.478L77.289 250.645C84.0986 245.135 86.1779 241.912 86.1779 237.89C86.1779 233.868 83.1501 231.162 77.289 231.162C74.8151 231.199 72.3803 231.792 70.1599 232.895C67.9394 233.999 65.9887 235.587 64.448 237.546L55.0362 230.645C59.9002 223.917 68.935 219.465 79.3562 219.465C92.1363 219.465 100.502 226.365 100.502 235.885C100.502 243.13 97.2314 249.243 86.6035 257.545L70.528 270.116Z" fill="#263238"/>
<path d="M156.451 268.812H146.528L144.023 281.641H130.38L132.97 268.812H100.417L102.229 259.292L137.809 220.51H153.082L119.934 257.275H135.815L138.065 245.836H151.1L148.851 257.275H158.785L156.451 268.812Z" fill="#263238"/>
<path d="M196.335 208.112H208.945L164.573 290.374H152L196.335 208.112Z" fill="#263238"/>
<path d="M253.925 220.51L252.113 229.686L219.828 281.641H204.288L235.272 232.035H215.682L213.688 241.998H201.26L205.504 220.51H253.925Z" fill="#263238"/>
<path d="M42.2803 329.869L45.8189 323.08C48.9727 325.118 52.6314 326.214 56.3738 326.241C59.8272 326.241 61.8214 325.146 61.8214 323.4C61.8214 319.082 46.4026 321.469 46.4026 311.383C46.4026 304.458 52.2515 299.919 61.639 299.919C65.6205 299.785 69.5643 300.737 73.0573 302.674L69.7984 309.414C67.1815 307.785 64.1646 306.933 61.0918 306.954C57.3709 306.954 55.3766 308.332 55.3766 310.079C55.3766 314.482 70.7955 311.961 70.7955 321.862C70.7955 328.738 64.8128 333.276 55.5226 333.276C50.0749 333.301 45.1379 331.837 42.2803 329.869Z" fill="#263238"/>
<path d="M86.7859 307.582L85.7523 312.994H99.8458L98.496 319.771H84.3904L83.2473 325.651H99.8944L98.4352 332.661H72.96L79.3562 300.62H104.199L102.788 307.643L86.7859 307.582Z" fill="#263238"/>
<path d="M127.352 323.031L132.751 332.661H123.363L118.645 324.138H114.122L112.444 332.661H103.469L109.805 300.62H123.363C131.474 300.62 136.143 304.433 136.143 310.854C136.207 313.579 135.38 316.25 133.79 318.451C132.201 320.653 129.938 322.263 127.352 323.031ZM122.099 307.717H117.38L115.52 317.114H120.87C124.822 317.114 127.133 315.195 127.133 311.665C127.084 308.959 125.175 307.717 122.099 307.717Z" fill="#263238"/>
<path d="M175.481 300.62L155.648 332.661H146.808L139.536 300.62H148.741L153.277 321.53L166.239 300.62H175.481Z" fill="#263238"/>
<path d="M177.378 300.62H186.364L179.968 332.661H170.994L177.378 300.62Z" fill="#263238"/>
<path d="M187.763 319.181C187.763 308.037 195.873 299.919 207.656 299.919C213.505 299.919 218.272 302.084 220.534 305.971L214.016 311.198C213.288 310.005 212.255 309.033 211.027 308.383C209.799 307.734 208.42 307.432 207.036 307.508C200.871 307.508 196.785 312.317 196.785 318.639C196.785 322.957 199.692 325.847 204.543 325.847C206.025 325.854 207.489 325.527 208.829 324.888C210.169 324.25 211.351 323.317 212.289 322.157L217.591 327.422C214.016 331.788 209.347 333.387 203.68 333.387C193.976 333.301 187.763 327.569 187.763 319.181Z" fill="#263238"/>
<path d="M233.63 307.582L232.584 312.994H246.678L245.364 319.771H231.222L230.092 325.651H246.726L245.279 332.661H219.853L226.176 300.62H251.019L249.62 307.643L233.63 307.582Z" fill="#263238"/>
<path d="M76.7904 202.417H59.0733C59.0733 177.472 69.0566 151.987 86.4576 132.43C104.771 111.877 128.543 100.561 153.338 100.561C204.008 100.561 239.406 137.977 239.406 191.581H221.725C221.725 147.879 194.256 118.519 153.374 118.519C113.295 118.482 76.7904 158.481 76.7904 202.417Z" fill="#5ED8FF"/>
<path d="M86.5062 197.435C89.3395 197.435 91.6378 197.718 91.6256 197.977C91.6134 198.235 89.3274 198.432 86.5062 198.432C83.6851 198.432 81.3747 198.198 81.3747 197.89C81.3747 197.583 83.6851 197.386 86.5062 197.435Z" fill="#263238"/>
<path d="M98.7392 158.149C101.171 159.724 102.813 161.335 102.545 161.765C102.278 162.196 100.113 161.322 97.6813 159.834C95.2493 158.346 93.632 156.71 93.8874 156.218C94.1427 155.726 96.368 156.587 98.7392 158.149Z" fill="#263238"/>
<path d="M129.382 131.077C130.538 133.697 131.109 135.997 130.598 136.194C130.088 136.39 128.787 134.484 127.546 131.913C126.306 129.343 125.734 126.993 126.33 126.796C126.926 126.6 128.239 128.42 129.382 131.077Z" fill="#263238"/>
<path d="M169.754 127.854C169.048 130.634 168.088 132.774 167.613 132.676C167.139 132.577 167.236 130.216 167.844 127.399C168.452 124.582 169.401 122.479 169.985 122.59C170.568 122.7 170.459 125.087 169.754 127.854Z" fill="#263238"/>
<path d="M202.732 151.298C200.372 152.872 198.244 153.832 197.965 153.438C197.685 153.045 199.327 151.347 201.613 149.662C203.899 147.977 206.039 147.03 206.38 147.522C206.72 148.014 205.091 149.711 202.732 151.298Z" fill="#263238"/>
<path d="M213.59 189.92C210.769 189.92 208.471 189.699 208.471 189.453C208.471 189.207 210.757 188.961 213.59 188.924C216.424 188.887 218.71 189.096 218.722 189.391C218.734 189.686 216.448 189.92 213.59 189.92Z" fill="#263238"/>
<path d="M148.534 195.258C147.652 195.264 146.794 194.965 146.102 194.41L116.323 171.039C115.497 170.387 114.961 169.43 114.834 168.378C114.706 167.326 114.997 166.266 115.642 165.431C116.287 164.596 117.233 164.054 118.273 163.925C119.313 163.796 120.361 164.089 121.187 164.742L148.352 186.046L185.866 151.2C186.632 150.48 187.649 150.098 188.693 150.137C189.737 150.177 190.724 150.634 191.435 151.409C192.146 152.183 192.524 153.212 192.485 154.269C192.446 155.325 191.994 156.323 191.228 157.042L151.258 194.188C150.518 194.883 149.544 195.265 148.534 195.258Z" fill="#5ED8FF"/>
<path d="M168.732 74.2139H134.587C134.056 74.2139 133.626 74.6489 133.626 75.1856V87.6947C133.626 88.2314 134.056 88.6664 134.587 88.6664H168.732C169.263 88.6664 169.693 88.2314 169.693 87.6947V75.1856C169.693 74.6489 169.263 74.2139 168.732 74.2139Z" fill="#5ED8FF"/>
<path d="M160.974 81.4463H142.333V98.5433H160.974V81.4463Z" fill="#5ED8FF"/>
<path d="M74.7115 118.444L60.7086 135.986C60.1643 136.668 60.2695 137.667 60.9436 138.217L70.5179 146.037C71.1919 146.588 72.1795 146.481 72.7238 145.799L86.7267 128.258C87.2709 127.576 87.1657 126.577 86.4917 126.027L76.9174 118.207C76.2434 117.656 75.2558 117.763 74.7115 118.444Z" fill="#5ED8FF"/>
<path d="M168.732 88.6664C168.732 88.8755 161.084 89.0354 151.708 89.0354C142.333 89.0354 134.684 88.8755 134.684 88.6664C134.684 88.4573 142.321 88.2974 151.708 88.2974C161.096 88.2974 168.732 88.4696 168.732 88.6664Z" fill="#263238"/>
<path d="M74.3949 142.786C74.2003 143.008 71.6224 141.015 68.4365 138.592C65.2506 136.169 62.6605 134.201 62.8186 133.955C62.9766 133.709 65.8342 135.308 69.0566 137.756C72.279 140.203 74.5773 142.577 74.3949 142.786Z" fill="#263238"/>
<path d="M77.3619 138.371C77.1674 138.592 74.5895 136.6 71.4035 134.176C68.2176 131.753 65.6154 129.785 65.7735 129.539C65.9315 129.293 68.8013 130.892 72.0237 133.352C75.2461 135.812 77.5443 138.162 77.3619 138.371Z" fill="#263238"/>
<path d="M80.9978 134.668C80.8154 134.89 78.2375 132.897 75.0515 130.474C71.8656 128.051 69.312 126.083 69.4215 125.837C69.5309 125.591 72.4493 127.19 75.6595 129.65C78.8698 132.11 81.1923 134.459 80.9978 134.668Z" fill="#263238"/>
<path d="M84.5242 130.253C84.3418 130.474 81.7517 128.482 78.5658 126.058C75.3798 123.635 72.7898 121.667 72.96 121.421C73.1302 121.175 75.9878 122.774 79.1981 125.234C82.4083 127.694 84.7066 130.044 84.5242 130.253Z" fill="#263238"/>
<path d="M237.372 123.989L222.299 107.379C221.713 106.734 220.721 106.691 220.083 107.283L211.017 115.701C210.379 116.294 210.336 117.297 210.922 117.943L225.995 134.552C226.581 135.198 227.573 135.241 228.211 134.648L237.277 126.231C237.915 125.638 237.958 124.634 237.372 123.989Z" fill="#5ED8FF"/>
<path d="M213.615 120.081C213.432 119.859 215.755 117.621 218.6 114.742C221.446 111.864 223.744 109.613 223.963 109.822C224.182 110.032 222.2 112.651 219.318 115.505C216.436 118.359 213.785 120.29 213.615 120.081Z" fill="#263238"/>
<path d="M217.494 123.697C217.299 123.475 219.634 121.237 222.467 118.359C225.3 115.48 227.623 113.23 227.842 113.439C228.061 113.648 226.067 116.268 223.197 119.121C220.327 121.975 217.664 123.906 217.494 123.697Z" fill="#263238"/>
<path d="M220.57 127.891C220.376 127.67 222.71 125.431 225.544 122.553C228.377 119.675 230.7 117.424 230.918 117.633C231.137 117.842 229.143 120.45 226.261 123.303C223.379 126.157 220.74 128.1 220.57 127.891Z" fill="#263238"/>
<path d="M224.364 132.11C224.17 131.889 226.504 129.65 229.338 126.772C232.171 123.894 234.493 121.643 234.712 121.852C234.931 122.061 232.937 124.681 230.055 127.534C227.173 130.388 224.534 132.282 224.364 132.11Z" fill="#263238"/>
<path d="M138.417 88.6541C138.138 88.6541 137.907 85.4561 137.907 81.5324C137.907 77.6087 138.138 74.3984 138.417 74.3984C138.697 74.3984 138.94 77.5964 138.94 81.5324C138.94 85.4684 138.709 88.6541 138.417 88.6541Z" fill="#263238"/>
<path d="M145.105 88.6541C144.826 88.6541 144.595 85.4561 144.595 81.5324C144.595 77.6087 144.826 74.3984 145.105 74.3984C145.385 74.3984 145.616 77.5964 145.616 81.5324C145.616 85.4684 145.385 88.6541 145.105 88.6541Z" fill="#263238"/>
<path d="M151.781 88.6541C151.501 88.6541 151.27 85.4561 151.27 81.5324C151.27 77.6087 151.501 74.3984 151.781 74.3984C152.061 74.3984 152.292 77.5964 152.292 81.5324C152.292 85.4684 152.073 88.6541 151.781 88.6541Z" fill="#263238"/>
<path d="M158.469 88.6541C158.177 88.6541 157.958 85.4561 157.958 81.5324C157.958 77.6087 158.177 74.3984 158.469 74.3984C158.761 74.3984 158.98 77.5964 158.98 81.5324C158.98 85.4684 158.749 88.6541 158.469 88.6541Z" fill="#263238"/>
<path d="M165.145 88.6541C164.865 88.6541 164.634 85.4561 164.634 81.5324C164.634 77.6087 164.865 74.3984 165.145 74.3984C165.425 74.3984 165.656 77.5964 165.656 81.5324C165.656 85.4684 165.376 88.6541 165.145 88.6541Z" fill="#263238"/>
<path d="M155.762 196.288C159.248 192.762 159.248 187.046 155.762 183.52C152.277 179.994 146.625 179.994 143.14 183.52C139.654 187.046 139.654 192.762 143.14 196.288C146.625 199.813 152.277 199.814 155.762 196.288Z" fill="#5ED8FF"/>
<path d="M158.372 189.92C158.287 189.92 158.299 189.121 157.922 187.755C157.381 185.85 156.231 184.18 154.651 183.007C153.385 182.056 151.882 181.48 150.31 181.342C148.739 181.204 147.161 181.511 145.751 182.228C144.342 182.945 143.158 184.044 142.33 185.402C141.503 186.76 141.064 188.325 141.064 189.92C141.064 191.515 141.503 193.08 142.33 194.438C143.158 195.796 144.342 196.895 145.751 197.612C147.161 198.329 148.739 198.636 150.31 198.498C151.882 198.36 153.385 197.784 154.651 196.833C156.228 195.657 157.378 193.988 157.922 192.085C158.299 190.719 158.287 189.92 158.372 189.92C158.457 189.92 158.372 190.117 158.372 190.498C158.391 191.061 158.334 191.624 158.202 192.171C157.765 194.224 156.629 196.057 154.991 197.349C153.768 198.321 152.321 198.963 150.786 199.217C149.251 199.471 147.677 199.328 146.212 198.801C144.397 198.15 142.827 196.947 141.716 195.357C140.605 193.767 140.009 191.867 140.009 189.92C140.009 187.973 140.605 186.074 141.716 184.483C142.827 182.893 144.397 181.69 146.212 181.039C147.677 180.514 149.249 180.371 150.784 180.622C152.318 180.874 153.765 181.512 154.991 182.479C156.628 183.776 157.764 185.613 158.202 187.669C158.334 188.216 158.391 188.779 158.372 189.342C158.433 189.699 158.408 189.92 158.372 189.92Z" fill="#263238"/>
<path d="M463.624 220.842L478.873 218.382C488.867 226.539 501.517 230.619 514.335 229.821C527.152 229.022 539.211 223.402 548.14 214.066C557.069 204.73 562.223 192.354 562.588 179.369C562.953 166.384 558.503 153.731 550.113 143.897C541.723 134.063 529.999 127.759 517.247 126.225C504.495 124.691 491.637 128.037 481.2 135.607C470.764 143.176 463.504 154.42 460.848 167.129C458.192 179.838 460.331 193.092 466.847 204.286L463.624 220.842Z" fill="white"/>
<path d="M463.624 220.842C463.624 220.842 463.624 220.498 463.795 219.797L464.378 216.648C464.901 213.819 465.679 209.674 466.689 204.262C466.691 204.244 466.698 204.227 466.707 204.212C466.717 204.197 466.73 204.185 466.745 204.176C466.76 204.166 466.777 204.16 466.795 204.158C466.812 204.156 466.83 204.158 466.847 204.163C466.858 204.157 466.87 204.154 466.883 204.154C466.896 204.154 466.909 204.157 466.92 204.163L466.701 204.336C462.349 196.906 459.889 188.5 459.539 179.871C459.431 177.186 459.532 174.496 459.843 171.827C460.204 168.97 460.781 166.145 461.569 163.377C464.441 153.342 470.226 144.41 478.174 137.739C486.122 131.068 495.868 126.964 506.148 125.96C514.214 125.19 522.346 126.356 529.882 129.363C537.419 132.37 544.148 137.134 549.523 143.266L551.59 145.726C552.234 146.587 552.806 147.485 553.438 148.346C554.639 150.096 555.731 151.92 556.709 153.807C557.244 154.717 557.585 155.726 558.035 156.673C558.484 157.62 558.947 158.567 559.251 159.576C559.971 161.528 560.568 163.525 561.038 165.554C562.909 173.438 562.971 181.651 561.22 189.563C558.875 199.852 553.499 209.18 545.803 216.313C538.106 223.446 528.451 228.049 518.113 229.514C515.273 229.904 512.407 230.072 509.54 230.018C506.879 229.89 504.228 229.603 501.6 229.157C493.234 227.581 485.391 223.911 478.788 218.481H478.897L467.491 220.215L464.585 220.645L463.624 220.781L464.634 220.596L467.564 220.104L478.849 218.21H478.958C485.554 223.551 493.36 227.148 501.673 228.677C504.28 229.117 506.912 229.392 509.553 229.501C512.399 229.548 515.245 229.371 518.065 228.973C528.278 227.478 537.807 222.896 545.401 215.829C552.996 208.761 558.302 199.537 560.625 189.367C562.342 181.545 562.272 173.43 560.418 165.64C559.942 163.639 559.353 161.668 558.655 159.736C558.351 158.74 557.84 157.829 557.439 156.87C557.037 155.911 556.648 154.939 556.125 154.041C555.162 152.177 554.082 150.377 552.891 148.654C552.283 147.793 551.675 146.907 551.067 146.058L549.024 143.598C543.715 137.54 537.07 132.832 529.627 129.856C522.185 126.879 514.153 125.717 506.184 126.464C499.129 127.169 492.296 129.347 486.115 132.859C479.934 136.371 474.541 141.142 470.276 146.87C466.559 151.881 463.781 157.538 462.08 163.561C461.294 166.301 460.713 169.097 460.341 171.925C460.019 174.573 459.905 177.242 460.001 179.908C460.298 188.476 462.683 196.838 466.944 204.249C466.967 204.275 466.98 204.308 466.98 204.342C466.98 204.376 466.967 204.409 466.944 204.434C466.92 204.454 466.89 204.465 466.859 204.465C466.828 204.465 466.798 204.454 466.774 204.434L466.993 204.36C465.923 209.711 465.096 213.819 464.561 216.66C464.281 218.05 464.062 219.12 463.916 219.834C463.77 220.547 463.624 220.842 463.624 220.842Z" fill="#263238"/>
<path d="M526.723 179.44C526.72 178.396 527.024 177.374 527.597 176.504C528.169 175.635 528.984 174.956 529.937 174.555C530.891 174.155 531.941 174.049 532.954 174.252C533.967 174.455 534.898 174.958 535.628 175.697C536.358 176.436 536.855 177.377 537.056 178.402C537.257 179.426 537.153 180.488 536.756 181.453C536.36 182.418 535.69 183.242 534.83 183.821C533.97 184.399 532.96 184.707 531.927 184.705C530.548 184.702 529.226 184.146 528.251 183.159C527.275 182.173 526.726 180.836 526.723 179.44Z" fill="#263238"/>
<path d="M505.856 179.44C505.854 178.396 506.158 177.375 506.729 176.505C507.301 175.636 508.115 174.958 509.068 174.557C510.021 174.155 511.07 174.049 512.083 174.251C513.096 174.453 514.026 174.955 514.757 175.693C515.488 176.43 515.986 177.37 516.188 178.394C516.39 179.418 516.288 180.48 515.893 181.445C515.499 182.409 514.83 183.234 513.972 183.815C513.114 184.395 512.105 184.705 511.073 184.705C509.691 184.705 508.366 184.151 507.388 183.164C506.41 182.177 505.859 180.838 505.856 179.44Z" fill="#263238"/>
<path d="M485.05 182.073C484.534 181.169 484.295 180.131 484.362 179.089C484.43 178.048 484.801 177.05 485.429 176.222C486.057 175.394 486.914 174.773 487.891 174.437C488.868 174.102 489.921 174.067 490.918 174.337C491.914 174.607 492.81 175.17 493.49 175.955C494.17 176.739 494.605 177.71 494.74 178.745C494.875 179.78 494.703 180.832 494.246 181.768C493.79 182.704 493.07 183.482 492.176 184.004C490.977 184.7 489.554 184.888 488.219 184.526C486.884 184.164 485.744 183.282 485.05 182.073Z" fill="#263238"/>
<path d="M120.737 368.27C117.539 366.732 112.152 363.522 108.82 362.268C105.526 360.842 101.852 360.591 98.3987 361.554C96.441 362.218 94.4832 363.805 94.471 365.896L107.543 375.65L120.737 372.132V368.27Z" fill="#FF9A6C"/>
<path d="M106.436 368.135C106.436 368.135 82.9555 362.981 79.04 360.951C75.1245 358.922 54.72 348.59 51.303 348.59C47.8861 348.59 44.9677 349.525 44.3475 352.969L48.8102 356.474L49.3818 358.27L57.0182 362.292L58.368 364.826L77.824 375.33C77.824 375.33 98.2285 385.81 101.633 386.4C105.038 386.991 122.038 388.43 129.309 394.69L158.493 382.563C158.493 382.563 150.067 370.459 143.573 367.47C137.785 364.814 128.069 364.814 121.272 367.63L106.436 368.135Z" fill="#FFBF9D"/>
<path d="M125.965 387.95C125.965 387.95 163.114 469.893 169.097 486.35C169.097 486.35 210.623 479.437 212.046 456.129L158.542 382.329L125.965 387.95Z" fill="#FFBF9D"/>
<path d="M91.4675 369.992C91.4675 369.992 91.3216 369.992 91.0663 369.992C90.6864 369.953 90.3115 369.875 89.9475 369.758C88.6158 369.348 87.3219 368.821 86.0807 368.184C84.4999 367.409 82.6637 366.388 80.6451 365.244C79.6359 364.678 78.5779 364.076 77.4714 363.498C76.3648 362.92 75.161 362.415 73.9328 361.874C71.6588 360.832 69.3091 359.969 66.9043 359.291C64.7034 358.738 62.5875 358.319 60.9946 358.861C60.3767 359.111 59.8161 359.487 59.3476 359.965C58.8791 360.443 58.5126 361.013 58.2707 361.64C58.0911 362.119 57.884 362.588 57.6506 363.043C57.6506 363.043 57.6506 362.895 57.7114 362.649C57.7927 362.272 57.9024 361.902 58.0397 361.542C58.2546 360.968 58.545 360.426 58.9031 359.931C59.3763 359.253 60.0359 358.731 60.8 358.43C61.7426 358.111 62.7442 358.01 63.7306 358.135C64.8336 358.245 65.927 358.438 67.0016 358.713C69.4577 359.368 71.857 360.223 74.176 361.271C75.392 361.813 76.608 362.317 77.7389 362.92C78.8698 363.522 79.9155 364.15 80.9248 364.728C82.9312 365.896 84.7309 366.954 86.2752 367.766C87.4718 368.427 88.7109 369.006 89.984 369.5C90.9325 369.857 91.4675 369.931 91.4675 369.992Z" fill="#FF9A6C"/>
<path d="M69.0688 358.209C67.924 357.975 66.8156 357.586 65.7734 357.052C63.2655 355.855 60.6867 354.816 58.0518 353.941C56.6101 353.527 55.1034 353.398 53.6134 353.559C53.0189 353.577 52.4343 353.718 51.895 353.971C51.3557 354.225 50.873 354.587 50.4762 355.035C50.0006 355.702 49.6881 356.473 49.5642 357.286C49.5531 357.602 49.4915 357.913 49.3818 358.209C49.3249 357.896 49.3249 357.575 49.3818 357.261C49.4272 356.384 49.7044 355.534 50.1843 354.801C50.5565 354.289 51.0388 353.868 51.5949 353.571C52.2309 353.266 52.9133 353.07 53.6134 352.993C55.1818 352.794 56.7739 352.915 58.295 353.35C60.9673 354.217 63.5559 355.329 66.0288 356.671C67.0687 357.128 68.0835 357.641 69.0688 358.209Z" fill="#FF9A6C"/>
<path d="M127.68 365.81C127.68 365.81 127.352 366.007 126.732 366.228C125.842 366.553 124.937 366.832 124.02 367.065C121.001 367.859 117.907 368.325 114.79 368.454C111.675 368.591 108.553 368.401 105.476 367.889C104.26 367.68 103.36 367.471 102.716 367.286C102.371 367.234 102.038 367.121 101.731 366.954C101.731 366.855 103.19 367.138 105.549 367.434C108.606 367.816 111.689 367.944 114.766 367.815C117.846 367.654 120.908 367.243 123.923 366.585C126.172 366.142 127.595 365.724 127.68 365.81Z" fill="#FF9A6C"/>
<path d="M473.559 317.164L419.52 305.847L406.144 295.7L334.765 309.624C333.622 311.739 322.058 328.074 322.058 328.074L293.944 337.729C281.995 340.905 271.33 347.787 263.446 357.409C255.95 366.774 249.809 377.169 245.206 388.282C232.56 418.306 214.308 452.992 214.308 452.992L202.865 434.346L154.639 457.322C154.639 457.322 182.886 514.923 192.237 523.152C202.634 532.291 226.541 533.348 243.066 516.301C253.025 506.018 281.808 465.379 287.803 455.206L296.704 497.74L304.888 546.288L291.658 579.707H484.758L476.769 548.121C476.769 548.121 484.637 465.797 486.813 450.471C491.933 414.321 473.559 317.164 473.559 317.164Z" fill="#5ED8FF"/>
<path d="M473.559 317.164C473.559 317.164 512.228 328.135 520.74 367.015C525.896 390.57 543.406 457.716 549.571 512.992C553.219 545.857 553.122 576.226 553.219 579.707H493.878L468.732 328.135L473.559 317.164Z" fill="#5ED8FF"/>
<path d="M374.382 350.546C374.382 350.546 374.382 350.693 374.224 350.952L373.677 352.083C373.19 353.079 372.461 354.543 371.67 356.401C369.956 360.091 367.937 365.564 364.678 371.677L364.52 371.985L364.253 371.751C360.24 368.295 355.887 364.137 351.388 359.648C343.423 351.653 336.443 344.211 331.287 338.934L325.146 332.698L323.456 331.013C323.25 330.827 323.063 330.621 322.897 330.398C323.132 330.548 323.348 330.726 323.541 330.927L325.292 332.526C326.8 333.928 328.94 336.007 331.579 338.615C336.82 343.818 343.86 351.21 351.801 359.193C356.3 363.682 360.629 367.803 364.593 371.32L364.156 371.394C367.439 365.367 369.53 359.918 371.33 356.253C372.218 354.396 372.959 352.969 373.494 351.997C373.738 351.567 373.944 351.198 374.115 350.915C374.19 350.782 374.28 350.659 374.382 350.546Z" fill="black"/>
<path d="M420.274 307.237C420.27 307.528 420.233 307.817 420.164 308.098C420.043 308.713 419.897 309.525 419.715 310.558C419.277 312.674 418.499 315.724 417.501 319.439C415.398 326.819 411.993 337.016 407.773 348.024C405.548 353.854 403.359 359.365 401.316 364.248L401.158 364.629L400.854 364.359C395.346 359.439 390.409 355.564 387.065 352.686C385.387 351.247 384.074 350.091 383.186 349.279L382.201 348.344C381.97 348.123 381.86 348.012 381.873 348C382.013 348.074 382.143 348.164 382.262 348.27L383.307 349.144L387.284 352.415C390.701 355.22 395.674 359.02 401.243 363.916L400.781 364.026C402.788 359.106 404.964 353.621 407.178 347.803C411.348 336.733 414.814 326.708 417.015 319.316C418.109 315.626 418.912 312.6 419.447 310.497C419.678 309.501 419.873 308.701 420.019 308.037C420.084 307.764 420.169 307.497 420.274 307.237Z" fill="black"/>
<path d="M295.184 492.291C295.133 492.207 295.096 492.116 295.075 492.02L294.819 491.184C294.6 490.364 294.296 489.282 293.907 487.937C293.494 486.535 293.092 484.8 292.606 482.783C292.12 480.766 291.597 478.453 291.074 475.895C288.384 462.55 286.491 449.053 285.407 435.477C284.033 419.573 283.729 405.121 283.802 394.678C283.802 389.451 283.936 385.219 284.082 382.304C284.155 380.878 284.204 379.758 284.24 378.934C284.24 378.59 284.24 378.295 284.301 378.061C284.288 377.963 284.288 377.864 284.301 377.766C284.311 377.868 284.311 377.971 284.301 378.073V378.946C284.301 379.771 284.301 380.89 284.301 382.304C284.301 385.232 284.204 389.451 284.228 394.678C284.228 405.109 284.641 419.549 286.015 435.416C287.109 448.971 288.936 462.456 291.487 475.809C291.986 478.367 292.448 480.729 292.922 482.697C293.396 484.665 293.749 486.473 294.138 487.875L294.941 491.147L295.123 491.996C295.184 492.193 295.196 492.291 295.184 492.291Z" fill="black"/>
<path d="M476.769 360.287C476.841 360.394 476.899 360.509 476.939 360.632C477.049 360.89 477.195 361.222 477.365 361.64C477.754 362.575 478.277 363.891 478.958 365.552C479.299 366.413 479.7 367.348 480.089 368.393L481.244 371.837C481.658 373.067 482.095 374.408 482.57 375.81C483.044 377.212 483.36 378.75 483.786 380.336C487.434 392.993 489.258 411.308 488.212 431.344C487.166 451.381 484.831 469.474 483.348 482.463C482.606 488.958 481.998 494.234 481.572 497.924C481.366 499.708 481.195 501.122 481.074 502.119L480.928 503.213C480.919 503.339 480.895 503.463 480.855 503.582C480.839 503.46 480.839 503.336 480.855 503.213L480.94 502.106C481.037 501.098 481.171 499.646 481.329 497.9C481.67 494.21 482.205 488.945 482.898 482.414C484.223 469.351 486.461 451.32 487.531 431.32C488.601 411.32 486.801 393.104 483.311 380.447L482.095 375.921L480.879 371.96C480.49 370.73 480.125 369.561 479.785 368.504C479.444 367.446 479.031 366.499 478.703 365.638C478.07 363.953 477.584 362.637 477.219 361.689C477.073 361.259 476.952 360.927 476.854 360.656C476.807 360.538 476.779 360.414 476.769 360.287Z" fill="black"/>
<path d="M214.624 494.874C214.454 494.874 214.247 485.501 214.174 473.964C214.101 462.427 214.174 453.054 214.356 453.054C214.539 453.054 214.733 462.427 214.806 473.964C214.879 485.501 214.806 494.874 214.624 494.874Z" fill="black"/>
<path d="M390.093 551.638V551.122C390.093 550.753 390.19 550.261 390.263 549.621C390.433 548.268 390.664 546.337 390.968 543.852C391.126 542.622 391.297 541.208 391.491 539.695C391.686 538.182 391.832 536.509 392.014 534.775C392.367 531.208 392.853 527.161 393.23 522.66C393.412 520.421 393.595 518.059 393.802 515.612C394.008 513.164 394.106 510.606 394.264 507.961C394.628 502.672 394.787 497.002 394.993 491.049C395.261 479.13 395.224 466.018 394.616 452.279C394.008 438.54 392.768 425.477 391.394 413.632C390.628 407.716 389.959 402.095 389.096 396.867C388.694 394.248 388.342 391.714 387.88 389.291C387.418 386.868 387.041 384.543 386.664 382.317C385.922 377.876 385.071 373.891 384.378 370.373C384.025 368.614 383.709 366.978 383.405 365.453C383.101 363.928 382.772 362.587 382.493 361.357L381.277 355.687C381.155 355.06 381.046 354.568 380.973 354.211C380.9 353.854 380.888 353.694 380.888 353.694C380.949 353.854 380.998 354.019 381.034 354.186L381.411 355.65L382.76 361.308L383.721 365.392C384.037 366.892 384.378 368.516 384.755 370.312C385.472 373.817 386.36 377.802 387.126 382.243C387.531 384.465 387.936 386.79 388.342 389.217C388.78 391.677 389.132 394.137 389.558 396.794C390.433 402.033 391.126 407.655 391.917 413.571C393.315 425.428 394.507 438.503 395.188 452.254C395.869 466.006 395.82 479.142 395.516 491.073C395.285 497.039 395.115 502.709 394.726 507.998C394.556 510.642 394.434 513.201 394.227 515.661C394.02 518.121 393.802 520.47 393.607 522.721C393.267 527.223 392.744 531.331 392.391 534.824C392.184 536.608 391.99 538.268 391.82 539.744C391.649 541.22 391.418 542.647 391.236 543.902C390.883 546.362 390.604 548.305 390.421 549.646L390.19 551.146C390.172 551.313 390.139 551.477 390.093 551.638Z" fill="black"/>
<path d="M415.799 418.872H416.042L416.808 418.786L419.787 418.442L431.181 417.212L471.735 412.956H472.039V413.263C472.343 425.674 472.708 439.721 473.085 454.616V454.751L473 454.837L468.136 460.163L450.406 479.327L450.248 479.499L450.042 479.388L420.164 464.382L420.031 464.321V464.21C418.73 450.495 417.599 439.155 416.906 431.197C416.541 427.285 416.261 424.21 416.067 422.082C415.981 421.062 415.908 420.274 415.86 419.696C415.811 419.118 415.86 418.909 415.86 418.909C415.86 418.909 415.86 419.204 415.969 419.745C416.079 420.287 416.127 421.135 416.249 422.205C416.468 424.358 416.796 427.445 417.222 431.381C418.036 439.278 419.192 450.557 420.602 464.198L420.456 463.989L450.37 478.908L450.017 478.97L467.71 459.733L472.574 454.419L472.489 454.641C472.136 439.745 471.796 425.711 471.504 413.288L471.82 413.559L431.388 417.47L419.921 418.552L416.869 418.823L416.079 418.897L415.799 418.872Z" fill="black"/>
<path d="M472.112 427.531C471.423 427.725 470.719 427.861 470.008 427.937C468.646 428.159 466.676 428.442 464.232 428.761C459.368 429.389 452.571 430.114 445.092 430.84L425.928 432.734L420.128 433.349C419.424 433.464 418.713 433.517 418 433.509C418.689 433.316 419.393 433.18 420.104 433.103C421.466 432.882 423.436 432.599 425.88 432.279C430.744 431.652 437.541 430.926 445.032 430.2L464.184 428.306L469.984 427.691C470.688 427.577 471.399 427.523 472.112 427.531Z" fill="black"/>
<g opacity="0.3">
<path d="M483.859 475.907L485.901 501.036C490.413 479.511 497.502 456.375 496.396 434.407C495.289 412.439 493.246 391.419 481.013 371.529C486.331 386.504 488.771 402.369 488.2 418.269C487.081 443.976 483.859 475.907 483.859 475.907Z" fill="black"/>
</g>
<path d="M206.574 429.13C205.917 427.616 204.755 426.384 203.291 425.649C201.588 425.059 199.74 425.895 198.123 426.707L154.006 448.921C151.1 450.385 147.926 452.119 146.856 455.194C145.458 459.13 148.072 463.287 150.504 466.67C154.566 472.316 159.43 478.466 166.312 479.265L204.264 452.943C208.897 452.254 211.779 447.027 211.56 442.291C211.341 437.556 208.933 433.239 206.574 429.13Z" fill="#5ED8FF"/>
<path d="M211.365 445.219C211.253 445.377 211.122 445.522 210.976 445.649L209.76 446.793C208.714 447.777 207.17 449.167 205.236 450.84C201.357 454.198 195.849 458.663 189.428 463.214C183.008 467.765 177.135 471.516 172.672 474.05C170.459 475.342 168.647 476.35 167.382 477.014L165.923 477.765C165.583 477.937 165.4 478.011 165.388 477.986C165.529 477.852 165.689 477.74 165.862 477.654L167.261 476.793L172.441 473.656C176.806 471 182.753 467.187 189.1 462.648C195.448 458.109 200.993 453.718 204.908 450.459L209.565 446.559L210.781 445.514C211.195 445.317 211.353 445.194 211.365 445.219Z" fill="black"/>
<g opacity="0.3">
<path d="M419.702 310.054C414.51 327.495 407.238 347.225 401.098 364.174C395.869 359.685 388.549 353.744 383.308 349.242C387.818 358.293 393.233 366.854 399.468 374.789C400.198 375.711 401.171 376.72 402.301 376.499C403.432 376.277 403.943 375.096 404.332 374.039L413.902 348.418C418.377 336.438 422.694 322.465 419.702 310.054Z" fill="black"/>
</g>
<path d="M337.622 120.302C353.43 115.702 368.217 120.302 382.797 127.953C397.377 135.603 409.135 148.235 416.748 162.934C424.773 178.419 428.324 196.464 425.418 213.696C422.511 230.928 412.881 247.164 398.459 256.746C378.748 269.882 351.582 269.193 331.287 257.029C310.992 244.864 297.628 222.441 294.09 198.837C291.658 182.577 293.628 165.431 301.13 150.867C308.633 136.304 321.9 124.496 337.61 120.29" fill="#263238"/>
<path d="M389.521 170.351C386.469 164.41 386.603 157.362 384.937 150.867C381.289 136.587 368.399 126.267 354.391 122.147C341.368 118.297 326.301 121.188 311.831 127.805C301.933 132.344 292.922 139.305 287.012 148.53C283.147 154.714 280.799 161.742 280.165 169.03C279.53 176.317 280.627 183.653 283.364 190.424L355.583 171.212C363.098 176.132 370.795 181.212 379.489 183.512C382.019 184.303 384.706 184.426 387.296 183.868C388.581 183.561 389.752 182.886 390.668 181.924C391.584 180.963 392.208 179.754 392.464 178.444C392.768 175.517 390.847 172.946 389.521 170.351Z" fill="#263238"/>
<path d="M406.752 299.882L388.111 167.263C387.284 160.99 384.463 154.594 378.225 154.89L312.561 148.494C291.986 149.453 282.331 176.784 284.155 197.484C286.186 220.535 289.554 248.591 294.795 265.221C305.338 298.64 331.956 298.984 331.956 298.984C331.956 298.984 333.573 305.626 335.604 318.049L378.164 346.684L406.752 299.882Z" fill="#FFBF9D"/>
<path d="M300.024 222.712C300.187 223.859 300.787 224.896 301.696 225.601C302.605 226.307 303.75 226.625 304.888 226.488C305.447 226.448 305.993 226.295 306.493 226.038C306.992 225.781 307.436 225.425 307.798 224.992C308.159 224.558 308.432 224.056 308.598 223.514C308.764 222.973 308.822 222.403 308.767 221.838C308.6 220.692 308 219.656 307.092 218.949C306.185 218.242 305.041 217.92 303.903 218.05C303.343 218.093 302.798 218.249 302.299 218.508C301.8 218.766 301.357 219.123 300.996 219.557C300.635 219.991 300.363 220.494 300.196 221.036C300.029 221.577 299.97 222.147 300.024 222.712Z" fill="#263238"/>
<path d="M292.363 211.088C292.983 211.58 295.901 208.628 300.583 207.903C305.265 207.177 309.034 209.034 309.46 208.37C309.667 208.075 308.961 207.14 307.307 206.254C305.07 205.156 302.553 204.778 300.097 205.172C297.664 205.537 295.41 206.679 293.664 208.431C292.387 209.76 292.059 210.83 292.363 211.088Z" fill="#263238"/>
<path d="M343.228 215.602C343.389 216.752 343.987 217.792 344.897 218.5C345.806 219.208 346.953 219.528 348.092 219.391C348.651 219.351 349.197 219.198 349.697 218.941C350.197 218.684 350.641 218.328 351.002 217.895C351.364 217.461 351.636 216.959 351.802 216.417C351.969 215.876 352.026 215.306 351.971 214.741C351.811 213.592 351.212 212.552 350.303 211.844C349.394 211.136 348.247 210.816 347.107 210.953C346.548 210.995 346.004 211.149 345.505 211.406C345.006 211.664 344.562 212.019 344.201 212.453C343.84 212.886 343.568 213.387 343.4 213.928C343.233 214.469 343.175 215.038 343.228 215.602Z" fill="#263238"/>
<path d="M336.832 204.828C337.452 205.32 340.383 202.368 345.052 201.642C349.722 200.916 353.503 202.774 353.929 202.109C354.136 201.814 353.43 200.879 351.777 199.994C349.535 198.893 347.014 198.515 344.554 198.911C342.09 199.278 339.809 200.439 338.048 202.22C336.832 203.45 336.504 204.68 336.832 204.828Z" fill="#263238"/>
<path d="M326.764 242.552C326.764 242.281 323.76 242.22 318.969 242.343C317.753 242.343 316.537 242.343 316.257 241.543C315.978 240.744 316.148 239.341 316.513 237.853C317.194 234.762 317.911 231.519 318.665 228.124C321.583 214.274 323.529 202.97 322.957 202.86C322.386 202.749 319.589 213.93 316.659 227.706C315.965 231.113 315.297 234.372 314.676 237.484C314.433 238.923 313.886 240.596 314.774 242.306C315.007 242.708 315.329 243.049 315.716 243.303C316.102 243.557 316.541 243.717 316.999 243.769C317.685 243.863 318.38 243.863 319.066 243.769C323.845 243.253 326.788 242.81 326.764 242.552Z" fill="#263238"/>
<path d="M331.968 298.984C347.956 296.761 363.019 290.088 375.476 279.71C375.476 279.71 364.861 306.586 334.132 309.292L331.968 298.984Z" fill="#FF9A6C"/>
<path d="M330.46 253.646C331.178 252.377 332.203 251.314 333.439 250.557C334.675 249.799 336.081 249.372 337.525 249.317C338.575 249.255 339.626 249.41 340.614 249.772C341.603 250.133 342.509 250.694 343.277 251.42C344.02 252.113 344.536 253.02 344.753 254.019C344.971 255.017 344.88 256.059 344.493 257.004C343.508 258.984 340.93 259.809 338.607 259.464C336.281 259.016 334.065 258.105 332.09 256.783C331.501 256.478 330.977 256.06 330.545 255.553C330.333 255.319 330.195 255.028 330.147 254.714C330.1 254.401 330.145 254.081 330.278 253.794" fill="#FF9A6C"/>
<path d="M341.015 243.696C340.237 243.769 341.015 248.911 337.209 253.216C333.403 257.521 327.943 257.804 328.004 258.517C328.004 258.861 329.366 259.329 331.652 259.046C334.632 258.628 337.37 257.16 339.386 254.901C341.319 252.736 342.344 249.895 342.243 246.98C342.109 244.803 341.355 243.622 341.015 243.696Z" fill="#263238"/>
<path d="M335.494 190.707C336.151 191.937 340.723 190.596 346.305 190.412C351.886 190.227 356.556 191.064 357.103 189.797C357.346 189.194 356.397 188.112 354.415 187.14C351.799 185.985 348.957 185.446 346.105 185.565C343.252 185.685 340.464 186.459 337.951 187.829C336.066 188.961 335.203 190.129 335.494 190.707Z" fill="#263238"/>
<path d="M290.624 190.215C291.609 191.162 294.661 189.551 298.528 188.899C302.395 188.247 305.824 188.518 306.359 187.275C306.614 186.673 305.933 185.689 304.353 184.889C302.244 183.971 299.915 183.705 297.657 184.126C295.4 184.546 293.316 185.634 291.67 187.251C290.442 188.567 290.162 189.748 290.624 190.215Z" fill="#263238"/>
<path d="M400.149 158.998C391.297 140.007 359.267 116.427 338.936 120.646L308.791 144.951C310.601 150.466 313.85 155.385 318.195 159.186C322.54 162.988 327.82 165.532 333.476 166.55C339.495 167.559 346.548 167.103 350.658 171.679C354.768 176.255 353.783 184.127 357.759 188.985C363.268 195.726 375.622 193.708 380.073 201.211C382.031 204.483 381.8 208.739 383.794 211.986C386.469 216.303 398.739 220.596 403.25 218.407C407.761 216.217 406.74 208.05 407.725 203.536C409.415 195.849 407.81 192.195 406.399 188.21C403.104 178.764 404.381 168.051 400.149 158.998Z" fill="#263238"/>
<path d="M389.789 224.36C389.412 221.802 391.418 215.344 393.85 214.52C400.344 212.454 412.419 211.137 415.106 228.21C418.754 251.58 394.872 250.461 394.714 249.796C394.556 249.132 391.102 233.142 389.789 224.36Z" fill="#FFBF9D"/>
<path d="M400.368 239.833C400.465 239.735 400.818 240.055 401.584 240.252C402.605 240.518 403.688 240.368 404.6 239.833C406.886 238.542 408.321 234.298 407.773 230.067C407.516 228.059 406.818 226.134 405.731 224.434C405.401 223.739 404.908 223.136 404.296 222.677C403.684 222.218 402.97 221.918 402.216 221.802C401.735 221.751 401.252 221.874 400.852 222.149C400.451 222.423 400.16 222.832 400.028 223.302C399.821 224.003 400.028 224.446 399.918 224.532C399.809 224.618 399.371 224.225 399.395 223.228C399.435 222.632 399.676 222.068 400.076 221.629C400.632 221.038 401.397 220.693 402.204 220.67C404.004 220.51 405.852 221.9 406.971 223.61C408.273 225.474 409.108 227.631 409.403 229.895C409.999 234.618 408.309 239.403 405.123 240.965C404.534 241.248 403.89 241.395 403.238 241.395C402.586 241.395 401.942 241.248 401.353 240.965C400.502 240.35 400.295 239.883 400.368 239.833Z" fill="#FF9A6C"/>
<path d="M314.725 137.091C313.667 146.931 300.692 160.769 295.269 168.924C284.848 184.483 283 189.465 286.672 221.15C279.765 210.855 274.22 200.621 273.296 188.21C272.372 175.8 275.46 162.921 282.951 153.057C290.442 143.192 302.492 136.698 314.786 137.067" fill="#263238"/>
<path d="M369.822 103.722C374.686 98.2973 381.715 94.7672 389.011 92.9222C399.407 90.29 410.826 91.0034 420.286 95.579C429.747 100.155 437.067 108.74 438.976 118.58C439.915 123.635 439.473 128.853 437.699 133.673C435.925 138.492 432.886 142.732 428.908 145.935C434.317 151.24 440.912 155.147 448.132 157.325C446.163 160.314 442.527 162.06 438.854 162.688C435.162 163.155 431.426 163.13 427.74 162.614C430.256 166.417 434.021 169.196 438.368 170.461C432.384 171.859 426.142 171.651 420.262 169.859C414.51 168.095 409.006 165.595 403.882 162.417C386.092 151.974 376.279 142.823 364.265 126.747C362.696 119.81 364.922 109.158 369.822 103.722Z" fill="#263238"/>
<path d="M408.175 153.02C395.115 133.721 378.492 123.402 363.45 120.191L408.175 153.02Z" fill="#263238"/>
<path d="M363.45 120.191C364.14 120.47 364.852 120.689 365.578 120.843C366.952 121.237 368.934 121.839 371.318 122.762C377.523 125.2 383.357 128.513 388.646 132.602C393.936 136.681 398.757 141.347 403.019 146.513C404.624 148.518 405.925 150.203 406.764 151.31C407.182 151.938 407.654 152.526 408.175 153.069C407.823 152.396 407.416 151.755 406.959 151.15C406.18 149.92 404.94 148.26 403.372 146.23C399.217 140.909 394.43 136.126 389.12 131.987C383.767 127.857 377.821 124.58 371.488 122.27C369.578 121.583 367.629 121.012 365.651 120.56C364.928 120.378 364.192 120.255 363.45 120.191Z" fill="#455A64"/>
<path d="M423.74 169.465L423.448 169.563L422.597 169.908C421.867 170.228 420.773 170.646 419.338 171.138C415.282 172.511 411.076 173.379 406.813 173.721C400.492 174.197 394.137 173.783 387.928 172.491C380.324 170.875 372.89 168.532 365.724 165.492C358.063 162.331 350.84 159.084 344.408 155.898C338.694 153.102 333.195 149.879 327.955 146.255C324.433 143.801 321.107 141.07 318.008 138.088C316.89 137.042 316.087 136.169 315.576 135.628L314.932 134.976C314.786 134.841 314.713 134.767 314.701 134.779C314.689 134.791 314.701 134.865 314.883 135.025L315.479 135.726C316.002 136.341 316.78 137.239 317.911 138.321C320.958 141.391 324.257 144.193 327.773 146.698C332.994 150.408 338.495 153.698 344.225 156.538C350.67 159.773 357.881 163.044 365.554 166.218C372.764 169.266 380.249 171.601 387.904 173.192C394.174 174.458 400.59 174.814 406.959 174.25C411.216 173.856 415.408 172.922 419.435 171.47C420.858 170.916 421.94 170.461 422.657 170.092L423.472 169.686C423.654 169.527 423.752 169.477 423.74 169.465Z" fill="#455A64"/>
<path d="M354.841 285.294L352.64 280.94C352.798 280.854 368.071 272.933 373.944 267.939C387.782 256.18 400.502 237.398 400.636 237.189L404.648 239.956C404.113 240.756 391.43 259.489 377.069 271.69C370.746 277.029 355.485 284.962 354.841 285.294Z" fill="#455A64"/>
<path d="M366.211 271.703C366.211 271.703 345.344 281.124 345.344 283.215C345.344 285.306 348.652 289.488 351.132 289.279C353.613 289.07 360.787 284.987 362.076 283.314C363.365 281.641 365.651 277.336 368.156 275.245L366.211 271.703Z" fill="#263238"/>
<path d="M404.478 208.37L399.614 208.136C399.79 193.949 397.375 179.85 392.488 166.55C381.933 139.047 361.638 124.287 332.187 122.664C329.508 122.545 326.824 122.73 324.186 123.217L326.314 121.175C327.345 120.191 328.544 119.403 329.852 118.851C331.646 118.092 333.595 117.788 335.531 117.965C372.716 121.224 389.521 145.136 397.073 164.914C402.217 178.801 404.729 193.543 404.478 208.37Z" fill="#455A64"/>
<path d="M402.046 253.105C410.555 253.105 417.453 243.072 417.453 230.694C417.453 218.317 410.555 208.284 402.046 208.284C393.537 208.284 386.639 218.317 386.639 230.694C386.639 243.072 393.537 253.105 402.046 253.105Z" fill="#455A64"/>
<path d="M417.453 230.694C417.438 230.593 417.438 230.489 417.453 230.387C417.453 230.141 417.453 229.846 417.38 229.477C417.325 228.315 417.208 227.157 417.027 226.008C416.399 221.771 414.768 217.749 412.273 214.286C411.432 213.167 410.461 212.155 409.379 211.273C408.2 210.334 406.872 209.606 405.451 209.12C403.93 208.622 402.319 208.466 400.733 208.665C399.054 208.92 397.447 209.528 396.015 210.449C392.98 212.585 390.636 215.58 389.278 219.059C387.759 222.763 386.978 226.734 386.978 230.744C386.978 234.754 387.759 238.724 389.278 242.429C390.635 245.908 392.979 248.904 396.015 251.039C397.447 251.96 399.054 252.567 400.733 252.822C402.32 253.015 403.929 252.86 405.451 252.367C406.872 251.881 408.2 251.153 409.379 250.215C410.458 249.329 411.429 248.318 412.273 247.201C414.768 243.738 416.399 239.717 417.027 235.479C417.207 234.33 417.325 233.172 417.38 232.011C417.38 231.642 417.38 231.346 417.453 231.1C417.437 230.999 417.437 230.895 417.453 230.793C417.472 230.894 417.472 230.999 417.453 231.1V232.011C417.44 233.183 417.359 234.353 417.21 235.516C416.666 239.829 415.069 243.938 412.565 247.472C411.713 248.63 410.725 249.68 409.622 250.596C408.406 251.589 407.027 252.359 405.548 252.871C403.954 253.401 402.265 253.573 400.599 253.376C398.839 253.12 397.153 252.492 395.65 251.531C392.504 249.366 390.069 246.299 388.658 242.724C387.093 238.945 386.287 234.89 386.287 230.793C386.287 226.696 387.093 222.64 388.658 218.862C390.069 215.287 392.504 212.22 395.65 210.055C397.153 209.094 398.839 208.465 400.599 208.21C402.265 208.013 403.954 208.185 405.548 208.714C407.027 209.226 408.406 209.996 409.622 210.99C410.728 211.903 411.716 212.953 412.565 214.114C415.073 217.646 416.67 221.755 417.21 226.07C417.358 227.228 417.439 228.395 417.453 229.563V230.485C417.461 230.555 417.461 230.625 417.453 230.694Z" fill="#263238"/>
<path d="M404.417 243.708C409.837 243.708 414.23 237.32 414.23 229.44C414.23 221.56 409.837 215.172 404.417 215.172C398.998 215.172 394.604 221.56 394.604 229.44C394.604 237.32 398.998 243.708 404.417 243.708Z" fill="#455A64"/>
<path d="M414.23 229.44C414.157 229.44 414.23 228.357 413.878 226.451C413.471 223.778 412.428 221.245 410.838 219.071C409.757 217.58 408.257 216.452 406.533 215.836C405.576 215.525 404.564 215.428 403.566 215.553C402.514 215.712 401.507 216.093 400.611 216.672C398.703 218.017 397.227 219.899 396.367 222.084C395.406 224.423 394.914 226.932 394.92 229.464C394.908 231.998 395.4 234.508 396.367 236.844C397.227 239.03 398.703 240.912 400.611 242.256C401.507 242.836 402.514 243.217 403.566 243.376C404.564 243.501 405.576 243.404 406.533 243.093C408.257 242.477 409.757 241.349 410.838 239.858C412.428 237.684 413.471 235.151 413.878 232.478C414.182 230.571 414.157 229.489 414.23 229.501C414.247 229.759 414.247 230.018 414.23 230.276C414.229 231.025 414.18 231.773 414.085 232.515C413.762 235.274 412.754 237.906 411.154 240.165C410.04 241.759 408.47 242.97 406.655 243.634C405.631 243.986 404.543 244.104 403.469 243.978C402.329 243.8 401.24 243.381 400.271 242.748C398.249 241.361 396.683 239.395 395.772 237.103C394.769 234.682 394.252 232.083 394.252 229.458C394.252 226.833 394.769 224.235 395.772 221.814C396.683 219.521 398.249 217.556 400.271 216.168C401.236 215.538 402.322 215.119 403.457 214.938C404.535 214.813 405.627 214.931 406.655 215.283C408.47 215.947 410.04 217.157 411.154 218.751C412.754 221.01 413.762 223.642 414.085 226.402C414.18 227.144 414.229 227.892 414.23 228.64C414.247 228.907 414.247 229.174 414.23 229.44Z" fill="#263238"/>
<path d="M405.098 239.698C408.993 239.698 412.151 235.105 412.151 229.44C412.151 223.774 408.993 219.182 405.098 219.182C401.203 219.182 398.045 223.774 398.045 229.44C398.045 235.105 401.203 239.698 405.098 239.698Z" fill="#455A64"/>
<path d="M412.151 229.44C412.09 229.44 412.09 228.665 411.871 227.3C411.558 225.38 410.8 223.564 409.658 221.998C408.889 220.937 407.821 220.135 406.594 219.698C405.895 219.472 405.155 219.409 404.428 219.513C403.702 219.618 403.008 219.887 402.399 220.301C399.76 222.06 398.362 225.75 398.349 229.428C398.337 233.105 399.76 236.808 402.399 238.566C403.008 238.981 403.702 239.25 404.428 239.354C405.155 239.459 405.895 239.395 406.594 239.169C407.821 238.732 408.889 237.931 409.658 236.869C410.8 235.304 411.558 233.487 411.871 231.568C412.09 230.202 412.09 229.428 412.151 229.44C412.18 229.623 412.18 229.81 412.151 229.993C412.157 230.532 412.129 231.07 412.066 231.605C411.847 233.604 411.127 235.513 409.974 237.152C409.154 238.286 408.014 239.143 406.703 239.612C405.957 239.866 405.164 239.954 404.381 239.87C403.551 239.754 402.755 239.461 402.046 239.009C400.574 238.001 399.435 236.57 398.775 234.901C398.043 233.15 397.666 231.268 397.666 229.366C397.666 227.465 398.043 225.583 398.775 223.831C399.435 222.162 400.574 220.731 402.046 219.723C402.755 219.271 403.551 218.978 404.381 218.862C405.164 218.778 405.957 218.866 406.703 219.12C408.014 219.589 409.154 220.446 409.974 221.58C411.127 223.219 411.847 225.128 412.066 227.127C412.129 227.662 412.157 228.2 412.151 228.739C412.195 228.97 412.195 229.208 412.151 229.44Z" fill="#263238"/>
</g>
<defs>
<filter id="filter0_d_3_207" x="-4" y="0.5" width="616" height="623" filterUnits="userSpaceOnUse" color-interpolation-filters="sRGB">
<feFlood flood-opacity="0" result="BackgroundImageFix"/>
<feColorMatrix in="SourceAlpha" type="matrix" values="0 0 0 0 0 0 0 0 0 0 0 0 0 0 0 0 0 0 127 0" result="hardAlpha"/>
<feOffset dy="4"/>
<feGaussianBlur stdDeviation="2"/>
<feComposite in2="hardAlpha" operator="out"/>
<feColorMatrix type="matrix" values="0 0 0 0 0 0 0 0 0 0 0 0 0 0 0 0 0 0 0.25 0"/>
<feBlend mode="normal" in2="BackgroundImageFix" result="effect1_dropShadow_3_207"/>
<feBlend mode="normal" in="SourceGraphic" in2="effect1_dropShadow_3_207" result="shape"/>
</filter>
</defs>
</svg>
